<svg width="370" height="372" viewBox="0 0 370 372" fill="none" xmlns="http://www.w3.org/2000/svg">
<path d="M163.282 61.4837H225.81V16.7189C225.81 12.2848 224.054 8.03225 220.927 4.89685C217.8 1.76145 213.558 0 209.136 0L120.93 0C105.175 0 90.0662 6.27516 78.9262 17.445C67.7862 28.6149 61.5278 43.7645 61.5278 59.561V143.866H143.315V81.5046C143.309 78.8739 143.822 76.2679 144.823 73.8364C145.825 71.4049 147.296 69.1956 149.151 67.3354C151.006 65.4752 153.209 64.0007 155.634 62.9965C158.059 61.9923 160.658 61.4782 163.282 61.4837Z" fill="#CC0000"/>
<path d="M143.523 226.332H80.9949C75.7103 226.332 70.6421 224.227 66.9053 220.48C63.1685 216.733 61.0692 211.652 61.0692 206.353V143.908H16.6742C12.2519 143.908 8.01078 145.669 4.88376 148.805C1.75674 151.94 0 156.193 0 160.627V249.906C0 265.514 6.18372 280.483 17.1908 291.519C28.1979 302.556 43.1268 308.756 58.6932 308.756H143.523V226.374V226.332Z" fill="#CC0000"/>
<path d="M225.727 288.819C225.727 294.118 223.628 299.199 219.891 302.946C216.154 306.693 211.086 308.798 205.801 308.798H143.773V354.775C143.773 359.209 145.53 363.461 148.657 366.597C151.784 369.732 156.025 371.494 160.447 371.494H239.066C248.153 371.494 257.151 369.697 265.544 366.207C273.938 362.716 281.562 357.6 287.982 351.152C294.401 344.704 299.49 337.049 302.956 328.627C306.422 320.205 308.197 311.18 308.181 302.068V227.544H225.727V288.819Z" fill="#CC0000"/>
<path d="M309.64 61.5254H225.977V143.866H307.889V206.353C307.878 211.648 305.775 216.724 302.041 220.468C298.306 224.212 293.245 226.321 287.963 226.332H225.727V227.293H352.618C357.04 227.293 361.281 225.532 364.408 222.396C367.535 219.261 369.292 215.008 369.292 210.574V121.212C369.286 113.365 367.739 105.596 364.737 98.3484C361.736 91.1012 357.34 84.518 351.8 78.9751C346.261 73.4321 339.686 69.0381 332.452 66.044C325.218 63.0499 317.466 61.5145 309.64 61.5254Z" fill="#CC0000"/>
</svg>
